<?xml version="1.0" encoding="UTF-8"?>
<svg xmlns="http://www.w3.org/2000/svg" version="1.1" viewBox="0 0 512 512">
  <defs>
    <style>
      .cls-1 {
        fill: #fff;
        stroke: #000;
        stroke-miterlimit: 10;
        stroke-width: 20px;
      }
    </style>
  </defs>
  <!-- Generator: Adobe Illustrator 28.6.0, SVG Export Plug-In . SVG Version: 1.2.0 Build 709)  -->
  <g>
    <g id="Layer_1">
      <g id="Layer_1-2" data-name="Layer_1">
        <path class="cls-1" d="M374.9,112.8l118.2,118.2c6.9,6.9,10.9,16.5,10.9,26.3s-3.9,19.4-10.9,26.3l-118.2,118.2c-6.2,6.2-14.4,9.5-23.1,9.5-18,0-32.6-14.6-32.6-32.6v-59.8h-123.2c-17,0-30.8-13.8-30.8-30.8v-61.6c0-17,13.8-30.8,30.8-30.8h123.2v-59.8c0-18,14.6-32.6,32.6-32.6s16.9,3.5,23.1,9.5h0ZM165.1,103.2h-61.6c-17,0-30.8,13.8-30.8,30.8v246.5c0,17,13.8,30.8,30.8,30.8h61.6c17,0,30.8,13.8,30.8,30.8s-13.8,30.8-30.8,30.8h-61.6c-51,0-92.4-41.4-92.4-92.4v-246.5c0-51,41.4-92.4,92.4-92.4h61.6c17,0,30.8,13.8,30.8,30.8s-13.8,30.8-30.8,30.8Z"/>
      </g>
    </g>
  </g>
</svg>